<svg id="menu" xmlns="http://www.w3.org/2000/svg" width="24" height="15.273" viewBox="0 0 24 15.273">
  <path id="Path_43" data-name="Path 43" d="M2.091,7.182H23.909a1.091,1.091,0,1,0,0-2.182H2.091a1.091,1.091,0,1,0,0,2.182Z" transform="translate(-1 -5)"/>
  <path id="Path_44" data-name="Path 44" d="M23.909,11H2.091a1.091,1.091,0,0,0,0,2.182H23.909a1.091,1.091,0,1,0,0-2.182Z" transform="translate(-1 -4.455)"/>
  <path id="Path_45" data-name="Path 45" d="M23.909,17H2.091a1.091,1.091,0,1,0,0,2.182H23.909a1.091,1.091,0,1,0,0-2.182Z" transform="translate(-1 -3.909)"/>
</svg>
