<svg id="Group_55" data-name="Group 55" xmlns="http://www.w3.org/2000/svg" width="24" height="24" viewBox="0 0 24 24">
  <g id="add-to-basket">
    <path id="Path_46" data-name="Path 46" d="M19.694,7.125,12.654.266a.937.937,0,0,0-1.308,0L4.306,7.125H.938A.937.937,0,0,0,0,8.062v3.75a.937.937,0,0,0,.937.938H1.63L4.287,23.292A.937.937,0,0,0,5.2,24H18.8a.938.938,0,0,0,.909-.708L22.37,12.75h.693A.937.937,0,0,0,24,11.812V8.062ZM12,2.246l5.007,4.879H6.993Zm6.073,19.879H5.927L3.564,12.75H20.436Zm4.052-11.25H1.875V9h20.25Z" transform="translate(0 0)"/>
  </g>
</svg>
